<mxfile host="65bd71144e">
    <diagram id="L7l-j9bMKIo5s06SwYQi" name="Page-1">
        <mxGraphModel dx="687" dy="397" grid="1" gridSize="10" guides="1" tooltips="1" connect="1" arrows="1" fold="1" page="1" pageScale="1" pageWidth="827" pageHeight="1169" math="0" shadow="0">
            <root>
                <mxCell id="0"/>
                <mxCell id="1" parent="0"/>
                <mxCell id="2" value="" style="ellipse;whiteSpace=wrap;html=1;aspect=fixed;fillColor=#FFFFFF;strokeColor=#000000;strokeWidth=3;" parent="1" vertex="1">
                    <mxGeometry x="280" y="160" width="200" height="200" as="geometry"/>
                </mxCell>
                <mxCell id="3" value="" style="rounded=1;whiteSpace=wrap;html=1;fillColor=#FFFFFF;strokeColor=#000000;strokeWidth=4;arcSize=36;" parent="1" vertex="1">
                    <mxGeometry x="380" y="250" width="90" height="20" as="geometry"/>
                </mxCell>
            </root>
        </mxGraphModel>
    </diagram>
</mxfile>